<svg width="151" height="48" viewBox="0 0 151 48" fill="none" xmlns="http://www.w3.org/2000/svg">
<path d="M59.72 36.08H69.94V40H54.68V20.4H59.72V36.08ZM88.9866 40H83.9466V27.96L77.2266 40H71.9066V20.4H76.9466V32.44L83.6666 20.4H88.9866V40ZM109.44 40H104.4V32.02H97.3997V40H92.3597V20.4H97.3997V28.1H104.4V20.4H109.44V40ZM127.093 20.12C127.559 20.12 128.399 20.2133 129.613 20.4V24.18H128.493C128.213 24.18 127.961 24.2733 127.737 24.46C127.513 24.628 127.345 24.8147 127.233 25.02L124.573 30.06L130.033 40H124.713L120.373 32.02H117.853V40H112.813V20.4H117.853V28.1H120.373L123.173 22.78C123.583 21.996 124.087 21.3613 124.685 20.876C125.301 20.372 126.103 20.12 127.093 20.12ZM135.207 40H129.747L137.167 20.4H142.767L150.187 40H144.727L143.467 36.5H136.467L135.207 40ZM137.727 32.86H142.207L139.967 26.28L137.727 32.86Z" fill="#432D5B"/>
<path d="M0.295891 31.8689C-0.0986307 31.1893 -0.0986301 30.353 0.295892 29.6734L16.8796 1.10405C17.2761 0.421035 18.0107 0 18.8059 0H34.7064C36.4151 0 37.4845 1.83104 36.6331 3.29892L21.0918 30.0951C20.6977 30.7747 20.6979 31.6106 21.0922 32.29L23.6524 36.7004C24.5044 38.1683 23.4351 40 21.7261 40H6.30114C5.50593 40 4.77134 39.579 4.37487 38.896L0.295891 31.8689Z" fill="#533D87"/>
<path d="M45.6022 29.7233C46.1326 30.6324 46.1326 31.7529 45.6022 32.662L42.1764 38.5336C41.6469 39.4411 40.6692 40 39.6113 40L32.7528 40C31.6948 40 30.7172 39.4411 30.1877 38.5336L26.7619 32.662C26.2315 31.7529 26.2315 30.6324 26.7619 29.7233L30.1877 23.8517C30.7172 22.9442 31.6948 22.3853 32.7528 22.3853H39.6113C40.6692 22.3853 41.6469 22.9442 42.1764 23.8517L45.6022 29.7233Z" fill="#533D87"/>
</svg>
